<?xml version="1.0" encoding="utf-8"?>
<!-- Generator: Adobe Illustrator 25.0.0, SVG Export Plug-In . SVG Version: 6.00 Build 0)  -->
<svg version="1.1" id="Layer_1" xmlns="http://www.w3.org/2000/svg" xmlns:xlink="http://www.w3.org/1999/xlink" x="0px" y="0px"
	 viewBox="0 0 1000 1000" style="enable-background:new 0 0 1000 1000;" xml:space="preserve">
<style type="text/css">
	.st0{fill:#8246EA;}
</style>
<g>
	<path class="st0" d="M268.1,428.5c-57.4,24.6-113.6,48.7-171.4,73.5c-7.9-18.2-15.5-36-23.7-55c57.1-24.5,113.6-48.7,171.4-73.5
		C252.1,391.6,259.8,409.4,268.1,428.5z"/>
	<path class="st0" d="M902.1,503.4c-57.6-24.7-114.1-48.9-171.4-73.4c8-18.5,15.6-36.4,23.7-55c57.4,24.6,113.9,48.8,171.2,73.4
		C917.8,466.7,910.3,484.3,902.1,503.4z"/>
	<path class="st0" d="M73.1,140.2c8.2-19,15.8-36.6,23.7-55c57.3,24.6,113.8,48.8,171.3,73.4c-8,18.6-15.6,36.4-23.6,55.1
		C187.1,189,130.7,164.8,73.1,140.2z"/>
	<path class="st0" d="M926.5,139.9c-57.7,24.7-114.2,48.9-171.5,73.4c-8-18.7-15.5-36.3-23.6-55c57.2-24.6,113.7-48.8,171.3-73.5
		C910.6,103.1,918.3,120.9,926.5,139.9z"/>
	<path class="st0" d="M53.4,264.5c58.6,0,116.6,0,175.3,0c0,19.6,0,38.7,0,58.4c-58.5,0-116.5,0-175.3,0
		C53.4,303.8,53.4,284.7,53.4,264.5z"/>
	<path class="st0" d="M946.6,264.7c0,19.5,0,38.3,0,58c-58.4,0-116.6,0-175.5,0c0-19.1,0-38.2,0-58
		C829.4,264.7,887.4,264.7,946.6,264.7z"/>
	<path class="st0" d="M693.3,900.8c-0.5-4.1-0.9-6.8-1.1-9.5c-5.4-80.8-10.7-161.7-16-242.5c-5.3-81.5-10.6-163.1-15.6-244.6
		c-0.2-4,2.9-8.2,4.7-12.2c3.6-8,10.5-15.9,10.7-23.9c1-54.4,1-108.7,0-163.1c-0.2-8.9-4.2-20.2-10.5-26.1
		c-47.4-43.7-95.9-86.4-144.1-129.3c-14.9-13.3-30-13.1-45,0.4c-46.5,41.7-92.8,83.6-139.5,125c-8.9,7.9-12.9,17.5-13,28.5
		c-0.4,55.4-0.6,110.9,0.3,166.3c0.1,7.7,6.9,15.3,10.4,22.9c1.8,4,5.1,8.2,4.9,12.2c-3.3,52.9-7.1,105.7-10.7,158.5
		c-6.6,96.6-13.1,193.1-19.8,289.7c-1.1,15.6-2.4,31.2-3.8,48.1c-25.7,0-50.4,0-74.8,0c0,20.6,0,39.7,0,59c179.5,0,358.2,0,537.1,0
		c0-20,0-39.4,0-59.4C742.7,900.8,718.6,900.8,693.3,900.8z M529.7,233.4c29.4,0,57.7,0,86.6,0c0,35.3,0,70.1,0,105.6
		c-28.9,0-57.4,0-86.6,0C529.7,303.8,529.7,269,529.7,233.4z M382.3,233.7c28.4,0,56.9,0,86.6,0c0,35.2,0,69.8,0,105.2
		c-28.8,0-57.3,0-86.6,0C382.3,304.1,382.3,269.3,382.3,233.7z M376.8,728.6c0.8-12.1,1.5-23.5,2.2-34.9c1.5-24.5,2.7-49,4.5-73.4
		c0.2-3.3,2.2-7.6,4.8-9.4c70.4-49,141-97.8,211.6-146.6c0.8-0.5,1.9-0.7,3.9-1.4c2.3,33.5,4.6,66,6.5,98.5c0.2,3.1-1.7,7.8-4.1,9.5
		c-75,52.3-150.1,104.4-225.3,156.4C380.2,727.8,379.1,727.9,376.8,728.6z M504.2,899.7c42-29.3,82-57.2,123.5-86.3
		c2.1,29.7,4,57.4,6.1,86.3C591.3,899.7,549.2,899.7,504.2,899.7z"/>
</g>
</svg>
